HIERARCHY
ROOT Hips
{
	OFFSET -3.958830 18.904000 13.208200
	CHANNELS 6 Xposition Yposition Zposition Zrotation Yrotation Xrotation 
	JOINT LHipJoint
	{
		OFFSET 0.000000 0.000000 0.000000
		CHANNELS 3 Zrotation Yrotation Xrotation
		JOINT LeftUpLeg
		{
			OFFSET 1.800000 -1.400000 0.085000
			CHANNELS 3 Zrotation Yrotation Xrotation
			JOINT LeftLeg
			{
				OFFSET 2.215000 -6.000000 0.000000
				CHANNELS 3 Zrotation Yrotation Xrotation
				JOINT LeftFoot
				{
					OFFSET 2.500000 -6.900000 0.000000
					CHANNELS 3 Zrotation Yrotation Xrotation
					JOINT LeftToeBase
					{
						OFFSET 0.200000 -0.500000 1.950000
						CHANNELS 3 Zrotation Yrotation Xrotation
						End Site
						{
							OFFSET 0.000000 0.000000 0.000000
						}
					}
				}
			}
		}
	}
	JOINT RHipJoint
	{
		OFFSET 0.000000 0.000000 0.000000
		CHANNELS 3 Zrotation Yrotation Xrotation
		JOINT RightUpLeg
		{
			OFFSET -1.800000 -1.400000 0.085000
			CHANNELS 3 Zrotation Yrotation Xrotation
			JOINT RightLeg
			{
				OFFSET -2.215000 -6.000000 0.000000
				CHANNELS 3 Zrotation Yrotation Xrotation
				JOINT RightFoot
				{
					OFFSET -2.500000 -6.900000 0.000000
					CHANNELS 3 Zrotation Yrotation Xrotation
					JOINT RightToeBase
					{
						OFFSET -0.200000 -0.500000 1.950000
						CHANNELS 3 Zrotation Yrotation Xrotation
						End Site
						{
							OFFSET 0.000000 0.000000 0.000000
						}
					}
				}
			}
		}
	}
	JOINT LowerBack
	{
		OFFSET 0.000000 0.000000 0.000000
		CHANNELS 3 Zrotation Yrotation Xrotation
		JOINT Spine
		{
			OFFSET -0.087000 1.940000 -0.288900
			CHANNELS 3 Zrotation Yrotation Xrotation
			JOINT Spine1
			{
				OFFSET 0.000000 1.950000 0.060000
				CHANNELS 3 Zrotation Yrotation Xrotation
				JOINT Neck
				{
					OFFSET 0.000000 0.000000 0.000000
					CHANNELS 3 Zrotation Yrotation Xrotation
					JOINT Neck1
					{
						OFFSET 0.000000 1.600000 0.340000
						CHANNELS 3 Zrotation Yrotation Xrotation
						JOINT Head
						{
							OFFSET 0.000000 1.667000 -0.240000
							CHANNELS 3 Zrotation Yrotation Xrotation
							End Site
							{
								OFFSET 0.000000 0.000000 0.000000
							}
						}
					}
				}
				JOINT LeftShoulder
				{
					OFFSET 0.000000 0.000000 0.000000
					CHANNELS 3 Zrotation Yrotation Xrotation
					JOINT LeftArm
					{
						OFFSET 2.700000 1.550000 -0.730000
						CHANNELS 3 Zrotation Yrotation Xrotation
						JOINT LeftForeArm
						{
							OFFSET 5.450000 0.000000 0.000000
							CHANNELS 3 Zrotation Yrotation Xrotation
							JOINT LeftHand
							{
								OFFSET 3.450000 0.000000 0.000000
								CHANNELS 3 Zrotation Yrotation Xrotation
								JOINT LeftHandIndex1
								{
									OFFSET 0.750000 0.000000 0.000000
									CHANNELS 3 Zrotation Yrotation Xrotation
									End Site
									{
										OFFSET 0.000000 0.000000 0.000000
									}
								}
							}
						}
					}
				}
				JOINT RightShoulder
				{
					OFFSET 0.000000 0.000000 0.000000
					CHANNELS 3 Zrotation Yrotation Xrotation
					JOINT RightArm
					{
						OFFSET -2.700000 1.550000 -0.730000
						CHANNELS 3 Zrotation Yrotation Xrotation
						JOINT RightForeArm
						{
							OFFSET -5.450000 0.000000 0.000000
							CHANNELS 3 Zrotation Yrotation Xrotation
							JOINT RightHand
							{
								OFFSET -3.450000 0.000000 0.000000
								CHANNELS 3 Zrotation Yrotation Xrotation
								JOINT RightHandIndex1
								{
									OFFSET -0.750000 0.000000 0.000000
									CHANNELS 3 Zrotation Yrotation Xrotation
									End Site
									{
										OFFSET 0.000000 0.000000 0.000000
									}
								}
							}
						}
					}
				}
			}
		}
	}
}
MOTION
Frames: 4
Frame Time: 0.016667
0.691410 17.199650 -1.099640 -3.747562 -8.255774 -4.059780 -15.183292 13.418491 2.235177 10.694051 -1.133671 -7.973738 -8.087236 8.406913 21.233832 -0.621478 5.892037 2.821843 0.409540 -0.001910 0.151990 18.403633 -9.722363 3.856563 -14.871147 4.760087 -40.840587 1.477203 -14.970028 63.592132 -1.560560 -10.402873 1.146432 0.104880 0.578460 0.212120 -3.671735 -3.156468 -7.749437 10.422670 -5.049711 13.481852 -1.933911 -3.673504 13.768816 1.195155 -4.358756 -9.774993 -12.398487 6.761241 41.330378 -5.398170 5.683700 -7.002920 -15.807958 -3.393060 4.524954 -28.447610 4.282560 -5.573512 173.541256 -72.277653 177.150511 -3.837479 3.086636 0.764290 0.363160 -0.203590 0.355840 13.689094 4.691583 5.721572 33.567150 -10.159997 -12.409055 21.287074 41.441370 4.988734 1.418421 -1.532694 -0.449450 0.482280 0.085440 -0.320040 
0.697160 17.139180 -1.120280 -3.751994 -8.460509 -4.485800 -15.224616 13.403119 2.271501 11.196377 -1.356458 -8.785653 -8.726645 9.094523 23.341082 -0.581996 6.229661 2.684231 0.430540 0.025680 0.162380 18.368380 -9.601964 3.946446 -15.076660 5.004113 -41.553212 1.242720 -15.295400 65.255293 -1.664989 -10.692852 1.067139 0.117670 0.570070 0.230120 -3.556384 -3.309348 -7.886703 9.677701 -4.926746 14.942148 -1.241117 -3.617973 13.397249 1.221066 -4.100347 -9.646202 -11.791408 6.567285 41.184761 -5.752010 5.901600 -8.357930 -16.432744 -3.682810 4.380191 -27.497406 4.568277 -5.780675 173.442058 -71.756873 177.252992 -3.828447 3.075363 0.795870 0.354980 -0.169050 0.373370 14.323584 4.930756 5.649365 32.796614 -10.091828 -12.430005 21.178039 42.362117 5.160670 1.401991 -1.534303 -0.448990 0.491770 0.072210 -0.319640 
0.709460 17.039170 -1.166050 -3.190772 -8.657347 -5.256210 -15.327919 13.390582 2.371207 11.342821 -1.868163 -10.309960 -9.604620 10.272675 27.098927 -0.504832 6.872340 2.425127 0.418330 0.004370 0.164830 18.287694 -9.328962 4.083167 -16.174200 5.060290 -42.871368 1.142939 -16.062894 67.749415 -1.780245 -11.163642 0.921590 0.115610 0.577040 0.238090 -3.286558 -3.752359 -8.110975 7.746408 -4.800709 17.687741 -0.117283 -3.656388 12.384534 1.021438 -4.485188 -9.302747 -12.363241 6.984617 39.959333 -5.769350 6.040040 -9.717660 -17.694527 -3.657271 3.943259 -26.060906 5.039829 -6.118179 173.097991 -71.354570 177.687967 -3.864797 3.059241 0.813710 0.353710 -0.170570 0.350610 16.071268 5.460214 5.493820 30.964949 -10.017770 -12.319766 21.239684 44.073468 5.590940 1.377885 -1.537441 -0.462000 0.508760 0.105020 -0.332840 
0.723370 16.938460 -1.223980 -3.097549 -9.521410 -6.260933 -15.414937 13.344327 2.544335 12.267256 -2.476649 -11.941671 -10.771544 11.888549 31.301359 -0.392723 7.770770 2.078603 0.363460 -0.084480 0.159910 18.217349 -9.048816 4.198653 -16.222864 5.683911 -43.873755 0.795574 -16.365746 70.043486 -1.862203 -11.518593 0.817866 0.078920 0.591590 0.233370 -3.055067 -4.143857 -8.370791 6.507091 -4.452412 21.289534 0.888704 -3.357662 10.887535 0.969968 -4.736195 -9.087203 -12.744344 7.353990 39.319443 -5.966730 6.306400 -10.473090 -19.428307 -4.147832 3.452941 -24.598541 5.428172 -6.838098 174.867248 -72.335273 175.300238 -3.902199 3.010088 0.847580 0.354000 -0.192690 0.300130 17.950898 6.412142 5.656004 29.241979 -10.364872 -12.462836 21.365212 46.301224 6.103141 1.350203 -1.523834 -0.500650 0.530120 0.170490 -0.366130 
